<?xml version="1.0" encoding="utf-8"?>
<!-- Generator: Adobe Illustrator 24.0.2, SVG Export Plug-In . SVG Version: 6.00 Build 0)  -->
<svg version="1.1"
	 id="Layer_1" inkscape:version="0.42" sodipodi:docbase="F:\openclip\svg da inviare" sodipodi:docname="pulsante02.svg" sodipodi:version="0.32" xmlns:cc="http://web.resource.org/cc/" xmlns:dc="http://purl.org/dc/elements/1.1/" xmlns:inkscape="http://www.inkscape.org/namespaces/inkscape" xmlns:rdf="http://www.w3.org/1999/02/22-rdf-syntax-ns#" xmlns:sodipodi="http://inkscape.sourceforge.net/DTD/sodipodi-0.dtd" xmlns:svg="http://www.w3.org/2000/svg"
	 xmlns="http://www.w3.org/2000/svg" xmlns:xlink="http://www.w3.org/1999/xlink" x="0px" y="0px" viewBox="0 0 136.7 136.7"
	 style="enable-background:new 0 0 136.7 136.7;" xml:space="preserve">
<style type="text/css">
	.st0{opacity:0.85;fill:#FF5400;}
	.st1{fill:#FF9E00;}
	.st2{fill:#E5B97A;}
	.st3{fill:#FFFFFF;}
	.st4{fill:#FF5400;}
</style>
<sodipodi:namedview  bordercolor="#666666" borderopacity="1.0" id="base" inkscape:current-layer="Layer_1" inkscape:cx="68.371498" inkscape:cy="68.351997" inkscape:pageopacity="0.0" inkscape:pageshadow="2" inkscape:window-height="510" inkscape:window-width="787" inkscape:window-x="22" inkscape:window-y="29" inkscape:zoom="2.6334271" pagecolor="#ffffff">
	</sodipodi:namedview>
<g id="g3">
	<path id="path5" class="st0" d="M133,68.3c0,33-25.8,61.5-58.7,64.6c-32.9,3-63.6-20.1-69.6-52.7C-1.3,47.6,19,14.8,50.9,5.9
		c31.8-8.9,66.3,8.4,78,39.4C131.6,52.6,133,60.5,133,68.3"/>
	<path id="path12" class="st1" d="M131.9,68.3c0,34.4-28.9,63.1-63.5,63.1c-34.6,0-63.5-28.7-63.5-63.1C4.8,34,33.7,5.2,68.4,5.2
		C103,5.2,131.9,34,131.9,68.3"/>
	<path id="path14" class="st2" d="M125.8,43.8c5.1,29.7-12.7,59.6-41.5,69.3c-30.5,10.3-64.8-4.9-77.5-34.2
		c6.1,35.5,42.9,58.8,77.9,49.4C120.8,118.6,140.7,78,125.8,43.8"/>
	<path id="path16" class="st2" d="M108,40.3c-8.8,1.8-18.9-10.6-26.5-13.7c-14.2-5.9-32-3.1-44.9,4.9C23,39.9,13.3,56.2,11.8,72.1
		c0,0,0,0.1,0,0c1-9.7,0.3-18.7,4-28.1c6.1-15.5,19.4-27.6,35.4-32.5c16.6-5,34.7-1.8,48.9,7.8C104.6,22.3,121.5,37.6,108,40.3"/>
	<path id="path18" class="st3" d="M52.7,37.8c0,17.5,0,35.1,0,52.6c0,5.4-2.2,15.3,5.7,15.7c6.6,0.3,14.2-8.4,18.8-12.1
		c7.8-6.1,15.5-12.1,23.3-18.2c7.5-5.9,1.9-10.2-3.6-14.5c-8.3-6.6-16.7-13.1-25-19.7c-2.7-2.1-5.4-4.2-8-6.3
		C61.1,33.2,52.7,32.8,52.7,37.8"/>
	<path id="path20" class="st4" d="M54.7,33.8c-5.2,2.5-2.9,14.3-2.9,18.8c0,11,0,21.9,0,32.9c0,4.3-2.2,16,1.4,19.6
		c6.8,6.9,17.4-4.7,22.4-8.6c8.1-6.3,16.1-12.6,24.2-19c2-1.6,4.8-3.2,5.6-5.7c1.4-4.2-2.1-6.6-4.9-8.9
		c-7.9-6.2-15.9-12.5-23.8-18.7C71,39.8,62.7,30,54.7,33.8 M55.6,104.6c-4.2-2-2.1-14.4-2.1-17.8c0-11,0-21.9,0-32.9
		c0-3.4-2.1-14.7,0.6-17.6c5.8-6.2,16.2,5.3,20.2,8.4c7.8,6.2,15.7,12.3,23.5,18.5c1.7,1.3,4.4,2.9,5.5,4.8c2,3.7-2.3,6.2-4.7,8
		c-7.7,6-15.4,12.1-23.1,18.1C71,97.7,62.3,107.8,55.6,104.6"/>
</g>
</svg>
