<?xml version="1.0" encoding="utf-8"?>
<!-- Generator: Adobe Illustrator 24.0.2, SVG Export Plug-In . SVG Version: 6.00 Build 0)  -->
<svg version="1.1" xmlns="http://www.w3.org/2000/svg" xmlns:xlink="http://www.w3.org/1999/xlink" x="0px" y="0px"
	 viewBox="0 0 441 429.3" style="enable-background:new 0 0 441 429.3;" xml:space="preserve">
<style type="text/css">
	.st0{display:none;}
	.st1{fill:#E4222C;}
	.st2{fill:#3C00A0;}
	.st3{fill:#6E6E6E;}
	.st4{fill:#00B7EB;}
	.st5{fill:#21DBAA;}
</style>
<g id="Capa_1" class="st0">
	<path class="st1" d="M79.1,36.6c8.6,2.8,16.1,8.4,21.3,15.8c4.3,6,7.3,12.9,8.9,20.1c1.5,6.8,2.3,13.7,2.4,20.6
		c0,16.6-3.3,30.6-10,42.1c-9.1,15.5-23,23.3-41.8,23.3H6.1V33.9h53.8C67.5,34,74,34.9,79.1,36.6z M31.3,55.6V137h24.1
		c12.3,0,20.9-6.1,25.8-18.2c2.7-6.7,4-14.6,4-23.8c0-12.7-2-22.4-6-29.2S67.2,55.5,55.4,55.5L31.3,55.6z"/>
	<path class="st1" d="M307.6,107.2c-7.3,6.1-17.7,9.1-31.3,9.1h-26v44.8h-25.9V36.5H278c12.3,0,22.2,3.2,29.5,9.6
		c7.3,6.4,11,16.4,11,29.9C318.5,90.7,314.9,101.1,307.6,107.2z M287.7,62.3c-3.3-2.8-7.9-4.1-13.8-4.1h-23.5v36.7h23.5
		c5.9,0,10.6-1.5,13.8-4.5s4.9-7.7,4.9-14.2S291,65,287.7,62.3z"/>
	<path class="st1" d="M342.6,50.8c9.8-9.9,22.2-14.9,37.2-14.9c20.1,0,34.8,6.7,44.2,20c5.1,7.5,7.9,15,8.3,22.6H407
		c-1.6-5.8-3.7-10.2-6.2-13.2c-4.5-5.3-11.2-7.9-20-7.9c-9,0-16.1,3.7-21.3,11.1c-5.2,7.4-7.8,17.9-7.8,31.5
		c0,13.6,2.7,23.8,8.2,30.5c5.5,6.7,12.5,10.1,20.9,10.1c8.6,0,15.3-2.9,19.8-8.7c2.5-3.1,4.6-7.8,6.3-14.1H432
		c-2.1,13.2-7.7,23.9-16.6,32.2s-20.3,12.4-34.2,12.4c-17.2,0-30.7-5.6-40.6-16.8c-9.8-11.2-14.8-26.6-14.8-46.1
		C325.8,78.5,331.4,62.3,342.6,50.8z"/>
	<path class="st1" d="M189.7,62.3c7,3.2,12.9,8.2,17.1,14.6c4.1,6.1,6.8,13.1,7.9,20.5c0.8,6.5,1.1,13.1,0.9,19.6h-72
		c0.4,9.9,3.9,16.9,10.4,20.8c4.3,2.6,9.2,3.9,14.2,3.7c5.9,0,10.7-1.5,14.4-4.6c2.2-1.9,4-4.2,5.3-6.8h26.4
		c-0.7,5.9-3.9,11.8-9.6,17.9c-8.8,9.6-21.2,14.4-37.2,14.4c-12.7,0.2-25-4.1-34.8-12.1c-10.1-8.1-15.1-21.3-15.1-39.6
		c0-17.1,4.5-30.3,13.6-39.4s20.9-13.7,35.3-13.7C174.4,57.6,182.4,59.1,189.7,62.3z M151,84.6c-3.7,3.8-6,8.9-6.9,15.3h44.5
		c-0.5-6.9-2.8-12.1-6.9-15.6s-9.2-5.3-15.3-5.3C159.8,79,154.7,80.9,151,84.6z"/>
</g>
<g id="Capa_2">
	<g>
		<path class="st2" d="M318.8,68.7c0,11.1-8.4,20-18.7,20c-10.3,0-18.7-9-18.7-20c0-1,0.1-2,0.2-3h-12.4c-0.1,1-0.1,2-0.1,3
			c0,18.3,13.9,33.2,31,33.2s31-14.9,31-33.2c0-1,0-2-0.1-3h-12.4C318.7,66.6,318.8,67.6,318.8,68.7"/>
		<path class="st2" d="M300.1,48.6c7.1,0,13.4,4.3,16.5,10.6h13.2c-3.8-13.7-15.7-23.7-29.8-23.7c-14,0-25.9,10-29.8,23.7h13.2
			C286.7,52.9,292.9,48.6,300.1,48.6"/>
		<path class="st2" d="M79.6,35.5c-7.9,0-15.3,3.4-20.7,9.5c-5.5,6.2-8.5,14.6-8.5,23.8c0,9.5,2.8,17.7,8.2,23.7
			c5.5,6.2,13.2,9.4,22.3,9.4c4.8,0,9.5-1.1,13.8-3.2c4.4-2.2,8.1-5.3,11.1-9.3l0.3-0.4l-7.4-7.9l-0.4,0.5c-4,5-9.9,7.8-16.1,7.8
			c-10.8,0-16.7-4.9-18.2-14.9h42.7l0-0.5c0.1-4.4,0.1-6,0.1-8.2c0-8.1-2.5-15.6-7.2-21.1C94.5,38.6,87.6,35.5,79.6,35.5 M94,63.6
			H63.7c1.3-10,6.6-14.9,16.1-14.9C87.9,48.7,93.6,54.7,94,63.6"/>
		<path class="st2" d="M172.6,35.5c-7.9,0-15.3,3.4-20.7,9.5c-5.5,6.2-8.5,14.6-8.5,23.8c0,9.5,2.8,17.7,8.2,23.7
			c5.5,6.2,13.2,9.4,22.3,9.4c4.8,0,9.5-1.1,13.8-3.2c4.4-2.2,8.1-5.3,11.1-9.3l0.3-0.4l-7.4-7.9l-0.4,0.5c-4,5-9.9,7.8-16.1,7.8
			c-10.8,0-16.7-4.9-18.2-14.9h42.7l0-0.5c0.1-4.4,0.1-6,0.1-8.2c0-8.1-2.5-15.6-7.2-21.1C187.6,38.6,180.7,35.5,172.6,35.5
			 M187,63.6h-30.3c1.3-10,6.6-14.9,16.1-14.9C181,48.7,186.6,54.7,187,63.6"/>
		<path class="st2" d="M129.3,87.5c-0.2-0.3-0.3-1-0.3-2.1V14.2h-12.8v72c0,4.6,0.9,8.2,2.7,10.5c1.8,2.3,4.4,3.5,7.8,3.5h12.3V87.9
			h-8.3C129.7,87.9,129.4,87.7,129.3,87.5"/>
		<path class="st2" d="M423.9,42.3c-3.4-4.4-8.5-6.8-14.7-6.8c-4.9,0-9,1.5-12.5,4.4c-2.9,2.5-5.3,6.1-7.2,10.8h-0.5
			c-2.5-9.8-8.8-15.2-17.9-15.2c-8.8,0-15.5,4.8-19,13.7h-0.4l-0.9-11.9h-10.9v63h12.8V65.1c0-3,0.8-7.6,3.1-11.3
			c1.8-3,5.3-6.5,11.3-6.5c7.3,0,11,5.1,11,15.2v37.8h12.8V65.1c0-4,1.2-8.3,3.3-11.6c1.8-2.9,5.3-6.3,11.3-6.3c3.5,0,6.2,1.2,8,3.6
			c1.9,2.5,2.9,6.4,2.9,11.7v37.8H429V60.7C429,53,427.2,46.6,423.9,42.3"/>
		<path class="st2" d="M253.6,79.5c-3.8,6.2-9.8,9.7-16.5,9.7c-4.7,0-8.9-2-11.9-5.7c-3-3.7-4.7-8.9-4.7-14.7
			c0-6.1,1.7-11.2,4.9-14.8c2.8-3.2,6.7-5,10.8-5h0.1l0.2,0c2.1,0.1,11.9,0.9,15.9,10.9l10.5-5c0,0-4.9-19.5-27.3-19.5
			c-7.8,0-15,3.4-20.2,9.5c-5.2,6.2-8.1,14.7-8.1,24c0,19,12,32.8,28.5,32.8c5.7,0,10.8-1.3,15.3-4c4.7-2.7,8.5-6.8,11.3-12.2
			l0.2-0.4l-8.8-6.2L253.6,79.5z"/>
		<path class="st2" d="M33.7,23.3H21.8L21,37.2h-9v11.1h9l0.1,37.8c0,9.3,3.5,14.1,10.4,14.1h14.1V87.9h-10c-1.4,0-1.8-0.3-1.8-2.5
			V48.3h11.8V37.2H33.7V23.3z"/>
	</g>
</g>
<g id="Capa_4">
	<polyline class="st3" points="51,139.6 385,139.6 385,132.4 51,132.4 	"/>
	<polyline class="st3" points="51,296.5 385,296.5 385,289.4 51,289.4 	"/>
</g>
<g id="Capa_3">
	<g>
		<path class="st4" d="M100.1,185.1c-7.5,0-14.5,3-19.7,8.5c-5.2,5.5-8.1,13.1-8.1,21.4c0,8.5,2.7,15.9,7.8,21.2
			c5.2,5.5,12.6,8.4,21.2,8.4c4.5,0,9.1-1,13.1-2.9c4.2-2,7.7-4.8,10.5-8.3l0.3-0.3l-7-7.1l-0.3,0.4c-3.8,4.4-9.4,7-15.3,7
			c-10.2,0-15.9-4.4-17.3-13.4h40.6l0-0.5c0.1-4,0.1-5.4,0.1-7.4c0-7.2-2.4-14-6.8-18.9C114.3,187.9,107.7,185.1,100.1,185.1
			 M113.8,210.3H85c1.2-9,6.2-13.4,15.3-13.4C108,197,113.4,202.3,113.8,210.3"/>
		<path class="st4" d="M251.5,185.1c-16.3,0-29.5,13.3-29.5,29.7c0,16.4,13.2,29.8,29.5,29.8c16.3,0,29.5-13.3,29.5-29.8
			C281,198.4,267.8,185.1,251.5,185.1 M269.3,214.8c0,9.9-8,18-17.8,18c-9.8,0-17.8-8.1-17.8-18c0-9.9,8-18,17.8-18
			C261.3,196.9,269.3,204.9,269.3,214.8"/>
		<path class="st4" d="M39.6,185c-8.5,0-14.8,4.1-18.6,12.2h-0.4l-0.3-10.7h-9.9v76.7h11.9v-30.6h0.4c1.5,3.4,3.5,6.2,6.1,8.2
			c3.2,2.5,7,3.8,11.5,3.8c6.8,0,13-2.9,17.6-8.3c4.6-5.4,7.1-13.1,7.1-21.6c0-8.4-2.5-16-7.1-21.4C53.2,188,46.8,185,39.6,185
			 M52.5,215.1c0,10.9-6,18.2-15,18.2c-4.6,0-8.4-1.9-11.1-5.4c-2.5-3.3-3.9-7.9-3.9-12.9c0-5.1,1.4-9.7,4.1-13.1
			c2.8-3.5,6.7-5.4,11.2-5.4c4.3,0,7.9,1.8,10.6,5.2C51.1,205,52.5,209.6,52.5,215.1"/>
		<path class="st4" d="M146.5,196.8h-0.3l-0.7-10.2h-10.2v56.5h12.2v-32.7c0-7.4,3-10.6,9.9-10.6h7.8v-13.3h-4
			C153.4,186.6,148.6,189.9,146.5,196.8"/>
		<path class="st4" d="M192.3,194.5c6.6,0,11.8,3.6,14.1,9.8l0.2,0.4l9.4-3.6l-0.2-0.5c-2-5-5-9-8.9-11.6c-4-2.7-8.8-4.1-14.4-4.1
			c-5.1,0-10.1,1.7-13.8,4.6c-4.1,3.2-6.3,7.8-6.3,12.9c0,4.8,1.7,8.8,5.1,11.9c2.9,2.6,7,4.6,12.5,6l0,0c0.4,0.1,0.8,0.2,1.2,0.3
			c3.4,0.8,6.6,1.5,8.9,2.6c2.4,1.2,3.5,2.8,3.5,5c0,4.4-5.2,6.4-10.3,6.4c-6.8,0-13.1-3.6-16.5-9.5l-0.2-0.4l-8.7,4.8l0.2,0.4
			c2.1,4.5,5.5,8.2,9.9,10.8c4.4,2.6,9.7,3.9,15.4,3.9c6.1,0,11.6-1.5,15.7-4.2c4.5-3,6.8-7.3,6.8-12.4c0-4.8-1.9-8.6-6.1-11.6
			c-3.8-2.7-9-4.3-13-5.3c-6.3-1.8-13.3-3.8-13.3-9.3C183.4,198.1,186.7,194.5,192.3,194.5"/>
		<path class="st4" d="M319.1,185.1c-4.2,0-8.2,1.3-11.5,3.6c-3,2.1-5.4,5.1-7,8.6h-0.5v-10.7h-11.2v56.5h12.2v-31.5
			c0-2.4,1-6.3,3.3-9.7c1.9-2.8,5.3-6.1,10.8-6.1c3.8,0,6.5,1.1,8.2,3.4c1.7,2.2,2.5,5.5,2.5,10v33.9H338v-35.5
			c0-7-1.6-12.6-4.8-16.5C330,187.1,325.2,185.1,319.1,185.1"/>
		<path class="st4" d="M395.2,232v-25.4c0-6.3-2-11.6-5.7-15.4c-3.9-3.9-9.5-6-16.3-6c-12.1,0-20.5,5.6-25.7,17l-0.2,0.4l10.5,5
			l0.2-0.4c2.9-6.3,8.6-10.5,14.1-10.5c6.2,0,10.9,4.2,10.9,9.7v4h-12.8c-14.3,0-23.2,6.9-23.2,18.1c0,4.9,1.8,9,5.2,11.9
			c3.2,2.7,7.7,4.3,12.6,4.3c4.5,0,8.8-1.3,12.4-3.8c3.3-2.3,5.9-5.4,7.6-9.2h0.4l-0.1,3.1c0,5.6,2.7,8.6,7.9,8.6h7.9v-9.7h-4.7
			C395.4,233.5,395.2,232.7,395.2,232 M383,220.4c-0.5,3.4-2.5,6.6-5.8,9.3c-2.9,2.4-6.5,3.9-9.1,3.9c-2.4,0-4.6-0.6-6.2-1.6
			c-1.6-1.1-2.5-2.6-2.5-4.4c0-2.4,1.4-4.2,4.2-5.5c2.5-1.1,6.2-1.7,10.4-1.7H383z"/>
		<path class="st4" d="M422.7,232.1c-0.9,0-1.1-0.2-1.3-0.4c-0.2-0.3-0.3-0.9-0.3-1.8V166h-12.2v64.5c0,4.2,0.9,7.3,2.5,9.4
			c1.7,2.1,4.2,3.2,7.4,3.2h11.7v-11H422.7z"/>
	</g>
</g>
<g id="Capa_5">
	<g>
		<path class="st5" d="M205.4,337.6c-18.7,0-34,15.2-34,34c0,18.7,15.2,34,34,34c18.7,0,34-15.2,34-34
			C239.4,352.9,224.1,337.6,205.4,337.6 M225.9,371.6c0,11.3-9.2,20.5-20.5,20.5c-11.3,0-20.5-9.2-20.5-20.5
			c0-11.3,9.2-20.5,20.5-20.5C216.7,351.1,225.9,360.3,225.9,371.6"/>
		<path class="st5" d="M110.2,319.4c-2.6,2.5-4,6.1-4,10.5v11h-7.6v11.5h7.6v51.6H120v-51.6h13.9v-11.5H120v-11
			c0-1.9,0.8-2.8,2.4-2.8H137v-11.4h-16.2C116.4,315.7,112.7,317,110.2,319.4"/>
		<path class="st5" d="M157.5,390.9c-0.3-0.3-0.4-1-0.4-2.1v-73h-14v73.7c0,4.7,1,8.4,2.9,10.8c1.9,2.4,4.8,3.6,8.5,3.6h13.5v-12.6
			H159C158,391.3,157.7,391.1,157.5,390.9"/>
		<polygon class="st5" points="329,339.4 314.9,392.3 314.6,392.3 299.1,339.8 299,339.4 284.7,339.4 269.9,392.3 269.8,392.3 
			255,339.4 240.2,339.4 259.1,403.5 259.3,403.9 278.6,403.9 291.8,358.5 304.3,403.9 323.7,403.9 342.4,339.4 		"/>
		<path class="st5" d="M214.8,370.6L214.8,370.6l-14.2-8.2c-0.4-0.2-0.8-0.2-1.2,0l0,0c-0.4,0.2-0.6,0.6-0.6,1.1v16.4
			c0,0.4,0.2,0.8,0.6,1.1c0.2,0.1,0.4,0.2,0.6,0.2c0.2,0,0.4-0.1,0.6-0.2l14.2-8.2c0.4-0.2,0.6-0.6,0.6-1.1
			C215.4,371.2,215.2,370.8,214.8,370.6"/>
	</g>
</g>
</svg>
